<svg height='300px' width='300px'  fill="#FFFFFF" xmlns="http://www.w3.org/2000/svg" xmlns:xlink="http://www.w3.org/1999/xlink" version="1.1" x="0px" y="0px" viewBox="0 0 100 100" style="enable-background:new 0 0 100 100;" xml:space="preserve"><style type="text/css">
	.st0{display:none;}
</style><g><path d="M89.9,5H10.1C7.3,5,5,7.3,5,10.1v79.8c0,2.8,2.3,5.1,5.1,5.1h79.8c2.8,0,5.1-2.3,5.1-5.1V10.1C95,7.3,92.7,5,89.9,5z    M60.1,51L18.3,75.1c-1,0.6-2.3-0.1-2.3-1.3V25.6c0-1.2,1.3-1.9,2.3-1.3l41.8,24.1C61.1,49,61.1,50.4,60.1,51z M85,72.8   c0,1.2-1,2.2-2.2,2.2H66.6c-1.2,0-2.2-1-2.2-2.2V26.3c0-1.2,1-2.2,2.2-2.2h16.2c1.2,0,2.2,1,2.2,2.2V72.8z"></path></g></svg>