<svg height='300px' width='300px'  fill="#FFFFFF" xmlns="http://www.w3.org/2000/svg" xmlns:xlink="http://www.w3.org/1999/xlink" version="1.1" x="0px" y="0px" viewBox="0 0 100 100" style="enable-background:new 0 0 100 100;" xml:space="preserve"><style type="text/css">
	.st0{display:none;}
</style><g><path d="M88.7,5H11.3C7.8,5,5,7.8,5,11.3v77.4c0,3.5,2.8,6.3,6.3,6.3h77.4c3.5,0,6.3-2.8,6.3-6.3V11.3C95,7.8,92.2,5,88.7,5z    M57,17.4l11.5,14.8c0.5,0.7,0.1,1.7-0.8,1.8l-18.7,2.5c-0.9,0.1-1.5-0.7-1.2-1.6l1.9-4.7c-12.2,0.9-21.7,11.4-20.9,23.9   c0.7,11.2,9.9,20.3,21.2,21c13.2,0.8,24.1-9.6,24.1-22.5c0-2.6-0.5-5.1-1.3-7.5c-0.8-2.2,0.5-4.6,2.7-5.2c1.8-0.5,3.9,0.5,4.5,2.3   c1.4,3.8,2.1,8,1.7,12.4C80.9,70.3,67.9,82.6,52.3,83C34.6,83.4,20.2,68.9,21,51.2c0.7-14.4,11.9-26.5,26.3-28.5   c1.9-0.3,3.8-0.3,5.7-0.2l2-4.8C55.3,16.9,56.4,16.8,57,17.4z"></path></g></svg>